<mxfile host="app.diagrams.net" modified="2024-04-21T08:08:13.162Z" agent="Mozilla/5.0 (Windows NT 10.0; Win64; x64) AppleWebKit/537.36 (KHTML, like Gecko) Chrome/124.0.0.0 Safari/537.36" etag="cQynDjcmIFMCfMh1_T0j" version="24.2.7" type="github">
  <diagram name="第 1 页" id="ZaNpSKk-NTj5xeRH86nk">
    <mxGraphModel dx="691" dy="651" grid="1" gridSize="10" guides="1" tooltips="1" connect="1" arrows="1" fold="1" page="1" pageScale="1" pageWidth="827" pageHeight="1169" math="0" shadow="0">
      <root>
        <mxCell id="0" />
        <mxCell id="1" parent="0" />
        <mxCell id="obVSh2tfikIh1YrgLLgo-1" value="承租者" style="shape=umlActor;verticalLabelPosition=bottom;verticalAlign=top;html=1;outlineConnect=0;" vertex="1" parent="1">
          <mxGeometry x="180" y="280" width="30" height="60" as="geometry" />
        </mxCell>
        <mxCell id="obVSh2tfikIh1YrgLLgo-4" value="用户注册登录" style="ellipse;whiteSpace=wrap;html=1;" vertex="1" parent="1">
          <mxGeometry x="274" y="110" width="140" height="70" as="geometry" />
        </mxCell>
        <mxCell id="obVSh2tfikIh1YrgLLgo-5" value="个人信息管理" style="ellipse;whiteSpace=wrap;html=1;" vertex="1" parent="1">
          <mxGeometry x="274" y="190" width="140" height="70" as="geometry" />
        </mxCell>
        <mxCell id="obVSh2tfikIh1YrgLLgo-7" value="反馈问题" style="ellipse;whiteSpace=wrap;html=1;" vertex="1" parent="1">
          <mxGeometry x="274" y="390" width="140" height="70" as="geometry" />
        </mxCell>
        <mxCell id="obVSh2tfikIh1YrgLLgo-8" value="房源管理" style="ellipse;whiteSpace=wrap;html=1;" vertex="1" parent="1">
          <mxGeometry x="274" y="300" width="140" height="70" as="geometry" />
        </mxCell>
        <mxCell id="obVSh2tfikIh1YrgLLgo-9" value="退出登录" style="ellipse;whiteSpace=wrap;html=1;" vertex="1" parent="1">
          <mxGeometry x="274" y="480" width="140" height="70" as="geometry" />
        </mxCell>
        <mxCell id="obVSh2tfikIh1YrgLLgo-13" value="" style="endArrow=classic;html=1;rounded=0;" edge="1" parent="1">
          <mxGeometry width="50" height="50" relative="1" as="geometry">
            <mxPoint x="200" y="260" as="sourcePoint" />
            <mxPoint x="270" y="170" as="targetPoint" />
          </mxGeometry>
        </mxCell>
        <mxCell id="obVSh2tfikIh1YrgLLgo-15" value="" style="endArrow=classic;html=1;rounded=0;" edge="1" parent="1">
          <mxGeometry width="50" height="50" relative="1" as="geometry">
            <mxPoint x="220" y="280" as="sourcePoint" />
            <mxPoint x="270" y="230" as="targetPoint" />
          </mxGeometry>
        </mxCell>
        <mxCell id="obVSh2tfikIh1YrgLLgo-16" value="" style="endArrow=classic;html=1;rounded=0;" edge="1" parent="1">
          <mxGeometry width="50" height="50" relative="1" as="geometry">
            <mxPoint x="224" y="330" as="sourcePoint" />
            <mxPoint x="270" y="330" as="targetPoint" />
          </mxGeometry>
        </mxCell>
        <mxCell id="obVSh2tfikIh1YrgLLgo-17" value="" style="endArrow=classic;html=1;rounded=0;" edge="1" parent="1">
          <mxGeometry width="50" height="50" relative="1" as="geometry">
            <mxPoint x="220" y="350" as="sourcePoint" />
            <mxPoint x="260" y="400" as="targetPoint" />
          </mxGeometry>
        </mxCell>
        <mxCell id="obVSh2tfikIh1YrgLLgo-18" value="" style="endArrow=classic;html=1;rounded=0;" edge="1" parent="1">
          <mxGeometry width="50" height="50" relative="1" as="geometry">
            <mxPoint x="210" y="380" as="sourcePoint" />
            <mxPoint x="270" y="470" as="targetPoint" />
          </mxGeometry>
        </mxCell>
        <mxCell id="obVSh2tfikIh1YrgLLgo-21" value="《include》" style="endArrow=open;endSize=12;dashed=1;html=1;rounded=0;" edge="1" parent="1" target="obVSh2tfikIh1YrgLLgo-23">
          <mxGeometry width="160" relative="1" as="geometry">
            <mxPoint x="420" y="224.37" as="sourcePoint" />
            <mxPoint x="580" y="224.37" as="targetPoint" />
          </mxGeometry>
        </mxCell>
        <mxCell id="obVSh2tfikIh1YrgLLgo-23" value="修改信息" style="ellipse;whiteSpace=wrap;html=1;" vertex="1" parent="1">
          <mxGeometry x="540" y="190" width="140" height="70" as="geometry" />
        </mxCell>
        <mxCell id="obVSh2tfikIh1YrgLLgo-24" value="搜索房源" style="ellipse;whiteSpace=wrap;html=1;" vertex="1" parent="1">
          <mxGeometry x="590" y="260" width="140" height="70" as="geometry" />
        </mxCell>
        <mxCell id="obVSh2tfikIh1YrgLLgo-25" value="订购房源" style="ellipse;whiteSpace=wrap;html=1;" vertex="1" parent="1">
          <mxGeometry x="590" y="330" width="140" height="70" as="geometry" />
        </mxCell>
        <mxCell id="obVSh2tfikIh1YrgLLgo-26" value="放弃房源" style="ellipse;whiteSpace=wrap;html=1;" vertex="1" parent="1">
          <mxGeometry x="590" y="400" width="140" height="70" as="geometry" />
        </mxCell>
        <mxCell id="obVSh2tfikIh1YrgLLgo-27" value="《include》" style="endArrow=open;endSize=12;dashed=1;html=1;rounded=0;" edge="1" parent="1">
          <mxGeometry width="160" relative="1" as="geometry">
            <mxPoint x="420" y="334.38" as="sourcePoint" />
            <mxPoint x="580" y="300" as="targetPoint" />
          </mxGeometry>
        </mxCell>
        <mxCell id="obVSh2tfikIh1YrgLLgo-29" value="《include》" style="endArrow=open;endSize=12;dashed=1;html=1;rounded=0;entryX=0;entryY=0.5;entryDx=0;entryDy=0;exitX=1.007;exitY=0.682;exitDx=0;exitDy=0;exitPerimeter=0;" edge="1" parent="1" source="obVSh2tfikIh1YrgLLgo-8" target="obVSh2tfikIh1YrgLLgo-25">
          <mxGeometry width="160" relative="1" as="geometry">
            <mxPoint x="430" y="344.38" as="sourcePoint" />
            <mxPoint x="590" y="310" as="targetPoint" />
          </mxGeometry>
        </mxCell>
        <mxCell id="obVSh2tfikIh1YrgLLgo-30" value="《include》" style="endArrow=open;endSize=12;dashed=1;html=1;rounded=0;entryX=0;entryY=0.5;entryDx=0;entryDy=0;exitX=0.986;exitY=0.696;exitDx=0;exitDy=0;exitPerimeter=0;" edge="1" parent="1" source="obVSh2tfikIh1YrgLLgo-8" target="obVSh2tfikIh1YrgLLgo-26">
          <mxGeometry width="160" relative="1" as="geometry">
            <mxPoint x="440" y="354.38" as="sourcePoint" />
            <mxPoint x="600" y="320" as="targetPoint" />
          </mxGeometry>
        </mxCell>
      </root>
    </mxGraphModel>
  </diagram>
</mxfile>
